<?xml version="1.0" encoding="UTF-8"?>
<svg version="1.1" xmlns="http://www.w3.org/2000/svg" width="600" height="600">
<path d="M0 0 C198 0 396 0 600 0 C600 198 600 396 600 600 C402 600 204 600 0 600 C0 402 0 204 0 0 Z " fill="#112347" transform="translate(0,0)"/>
<path d="M0 0 C6.76256512 -0.10138675 13.52493439 -0.17145971 20.28808594 -0.21972656 C22.58894169 -0.23984688 24.88974629 -0.26714634 27.19042969 -0.30175781 C30.49687317 -0.35025612 33.80264085 -0.37296478 37.109375 -0.390625 C38.13867126 -0.41127014 39.16796753 -0.43191528 40.22845459 -0.45318604 C47.26825692 -0.45539995 47.26825692 -0.45539995 50.42944336 1.51196289 C52.60342616 4.95593285 54.34855547 8.4880739 56.01953125 12.19921875 C56.3946283 13.0134581 56.76972534 13.82769745 57.15618896 14.66661072 C58.38349635 17.33641894 59.59803539 20.01182843 60.8125 22.6875 C61.66909152 24.55747217 62.52644037 26.42709761 63.38452148 28.29638672 C65.93463369 33.85899361 68.46848267 39.42891221 71 45 C71.68800667 46.51162171 72.37614784 48.02318221 73.06445312 49.53466797 C75.49765607 54.87909839 77.9287128 60.22448676 80.35131836 65.57373047 C85.30679406 76.51097916 90.33484944 87.41405147 95.375 98.3125 C105.25442762 119.67891064 105.25442762 119.67891064 109.6418457 129.5144043 C112.01978597 134.8414826 114.43759822 140.14946376 116.8671875 145.453125 C117.91566792 147.745629 118.96390538 150.03824398 120.01211548 152.33087158 C120.70884937 153.85259719 121.40689553 155.3737227 122.10629272 156.89422607 C123.08594016 159.02431774 124.06098076 161.15646397 125.03515625 163.2890625 C125.33465179 163.93699768 125.63414734 164.58493286 125.94271851 165.25250244 C128 169.77252676 128 169.77252676 128 172 C128.66 172 129.32 172 130 172 C130.35707031 170.81019531 130.71414063 169.62039063 131.08203125 168.39453125 C133.12770699 162.27180114 135.9352526 156.51724259 138.72067261 150.70635986 C144.67526458 138.27240648 150.3837066 125.7424141 155.9375 113.125 C162.18127823 98.95049098 168.6614099 84.90259425 175.33958435 70.92752075 C179.41022636 62.33777465 183.18171306 53.72751301 187 45 C157.96 45 128.92 45 99 45 C94.0400642 35.0801284 89.1368608 25.19124628 84.5 15.125 C83.96375 13.97386719 83.4275 12.82273438 82.875 11.63671875 C82.3696875 10.54230469 81.864375 9.44789063 81.34375 8.3203125 C80.66602539 6.85489014 80.66602539 6.85489014 79.97460938 5.35986328 C79 3 79 3 79 1 C137.74 1 196.48 1 257 1 C256.20885151 5.74689095 255.56371951 8.40031058 253.5859375 12.55078125 C253.08022217 13.62400635 252.57450684 14.69723145 252.0534668 15.80297852 C251.49957275 16.96112061 250.94567871 18.1192627 250.375 19.3125 C249.17763091 21.84737958 247.9857008 24.38481097 246.79296875 26.921875 C246.48210831 27.58119522 246.17124786 28.24051544 245.85096741 28.91981506 C242.3907048 36.26786972 239.03783621 43.66385465 235.6875 51.0625 C234.42497535 53.84657936 233.16172296 56.63032829 231.8984375 59.4140625 C231.42243355 60.4632637 231.42243355 60.4632637 230.93681335 61.53366089 C227.24232314 69.674489 223.52940331 77.80688499 219.8125 85.9375 C219.47621582 86.67313171 219.13993164 87.40876343 218.79345703 88.16668701 C213.95745853 98.74295508 209.09770241 109.30798983 204.21923828 119.86474609 C196.83937728 135.83481541 189.52130023 151.83304988 182.2315979 167.8444519 C181.59116654 169.25081249 180.95037518 170.65700922 180.30917358 172.0630188 C176.9767388 179.37195196 173.68478031 186.69470544 170.484375 194.0625 C167.39591308 201.16486443 164.15686714 208.18878712 160.85235596 215.19287109 C158.93251803 219.26322994 157.02604528 223.33988132 155.11694336 227.4152832 C154.26200163 229.24012829 153.40696402 231.06493 152.54934692 232.88851929 C148.97916459 240.48208278 145.49535699 248.10254053 142.15625 255.80078125 C141.52710754 257.2390782 140.89763585 258.67723118 140.26782227 260.11523438 C139.35385645 262.20205915 138.44676843 264.29054405 137.5607605 266.3894043 C136.74321426 268.32582872 135.90337667 270.25111768 135.05859375 272.17578125 C134.58736084 273.27833252 134.11612793 274.38088379 133.63061523 275.5168457 C132 278 132 278 129.30883789 278.86401367 C128.16596313 278.9313269 128.16596313 278.9313269 127 279 C123.86956249 275.31883738 122.16402103 271.19682949 120.25 266.8125 C119.45670024 265.02170493 118.66234824 263.23137577 117.8671875 261.44140625 C117.42084961 260.43480957 116.97451172 259.42821289 116.51464844 258.39111328 C114.80056591 254.55349137 113.06352945 250.72679717 111.3203125 246.90234375 C110.99671753 246.19225662 110.67312256 245.48216949 110.33972168 244.75056458 C109.03590419 241.89052917 107.73151924 239.0307542 106.42590332 236.17153931 C103.05156476 228.77932667 99.71369939 221.37531244 96.4765625 213.921875 C93.12421091 206.21388679 89.59194992 198.59877041 86 191 C85.35947719 189.64244394 84.71901631 188.28485866 84.07861328 186.92724609 C82.74875789 184.10951841 81.41849887 181.29198162 80.08789062 178.47460938 C79.75378174 177.76715576 79.41967285 177.05970215 79.07543945 176.33081055 C78.40254825 174.90701883 77.7290499 173.48351389 77.05493164 172.06030273 C72.94720952 163.38534384 68.9433597 154.67482899 65.06729126 145.89385986 C61.52419593 137.88550401 57.83329787 129.94751421 54.13546753 122.00970459 C47.84025656 108.49300221 41.58808258 94.95813178 35.4375 81.375 C30.29349596 70.01599723 25.09816591 58.68176983 19.86618042 47.36300659 C18.7029798 44.8459962 17.54087427 42.32848329 16.37915039 39.81079102 C13.14196461 32.79609257 9.90098745 25.78339113 6.63671875 18.78125 C5.71590575 16.79177777 4.79530917 14.80220535 3.875 12.8125 C3.46725342 11.94665283 3.05950684 11.08080566 2.6394043 10.1887207 C2.28144775 9.41101318 1.92349121 8.63330566 1.5546875 7.83203125 C1.25030762 7.17952393 0.94592773 6.5270166 0.63232422 5.85473633 C0 4 0 4 0 0 Z " fill="#FCFDFD" transform="translate(174,166)"/>
<path d="M0 0 C4.92456981 0.42210598 6.81593461 2.32082764 10 6 C11.71975551 8.91668313 13.12968084 11.95087227 14.5390625 15.02734375 C14.9465976 15.89388077 15.35413269 16.76041779 15.77401733 17.6532135 C17.06788592 20.4100014 18.34672695 23.17345143 19.625 25.9375 C20.491177 27.79148806 21.35835476 29.64500892 22.2265625 31.49804688 C23.45178483 34.11368163 24.67553152 36.72989246 25.89151001 39.34983826 C26.43755386 40.52619591 26.43755386 40.52619591 26.99462891 41.72631836 C27.33560104 42.46191483 27.67657318 43.19751129 28.02787781 43.95539856 C28.90237071 45.79466265 29.8371755 47.60495976 30.77905273 49.41064453 C32.25324731 52.53708078 32.08466464 53.76696578 31 57 C30.38589967 58.53392161 29.73852206 60.05484325 29.0625 61.5625 C22.7840339 76.97328043 23.35995741 96.19230335 29.625 111.625 C38.29425545 128.86424462 50.55545177 142.70993787 69.0625 149.4375 C71.57864293 150.24002941 74.06222077 151.01555519 76.625 151.65625 C79.55053989 153.31148967 80.08692506 155.02321151 81.21850586 158.10498047 C82.47459104 161.52477368 83.80271615 164.04183238 86 167 C90.7624693 168.5300477 95.05129076 168.48045721 100 168 C100.29261719 167.11570312 100.58523438 166.23140625 100.88671875 165.3203125 C101.25410156 164.22460938 101.62148438 163.12890625 102 162 C102.41185547 160.69675781 102.41185547 160.69675781 102.83203125 159.3671875 C104.48013406 155.17798592 105.68948194 152.61955009 109.8671875 150.64453125 C112.11719783 149.99599886 114.38157229 149.39570531 116.65625 148.83984375 C131.33713716 145.15247139 143.44615481 133.65588497 151.20043945 121.03588867 C160.05405345 105.9709465 163.52912195 88.27562115 160 71 C157.91430384 63.84347765 157.91430384 63.84347765 155 57 C154.53278481 51.98017427 155.83319042 48.40193851 158 43.9765625 C158.3115654 43.31716675 158.6231308 42.657771 158.94413757 41.97839355 C159.95121572 39.85486353 160.97479098 37.73982846 162 35.625 C162.69447566 34.17465587 163.38824136 32.72397157 164.08129883 31.27294922 C165.43589011 28.44278358 166.7978496 25.61635915 168.16650391 22.79296875 C169.67779567 19.673856 171.16306727 16.54335497 172.63671875 13.40625 C173.31905655 11.97856573 174.00249319 10.5514056 174.6875 9.125 C175.24824219 7.95195312 175.80898438 6.77890625 176.38671875 5.5703125 C178.08252287 2.86852289 179.00137996 1.96535052 182 1 C184.375 0.875 184.375 0.875 187 2 C189.2374562 4.51250991 191.1427561 7.19817845 193 10 C191.12656982 14.73466901 187.29552682 17.99837783 183.72460938 21.49023438 C180.69248381 24.55128709 180.69248381 24.55128709 180.0390625 28.6484375 C180.9182581 30.79996495 181.82918829 32.72038992 183.0625 34.6875 C185 38 185 38 185 40 C186.22976563 39.7834375 187.45953125 39.566875 188.7265625 39.34375 C190.35932991 39.06223838 191.99214497 38.78100296 193.625 38.5 C194.43324219 38.35691406 195.24148438 38.21382813 196.07421875 38.06640625 C200.43877864 37.32123749 204.55238129 36.82727694 209 37 C209.53603819 38.39006515 210.05317473 39.78742649 210.5625 41.1875 C210.85253906 41.96480469 211.14257812 42.74210937 211.44140625 43.54296875 C212.14912216 46.65592896 212.29430127 48.0415971 211 51 C208.49397104 52.95281488 205.75770324 54.36506862 202.9375 55.8125 C201.79958008 56.42254883 201.79958008 56.42254883 200.63867188 57.04492188 C198.76727066 58.04535649 196.88464519 59.02474392 195 60 C194.97250234 61.37488287 194.9533836 62.74993391 194.9375 64.125 C194.92009766 65.27355469 194.92009766 65.27355469 194.90234375 66.4453125 C194.96867617 69.59275908 194.96867617 69.59275908 196 75 C203.26 76.32 210.52 77.64 218 79 C218 83.62 218 88.24 218 93 C216.57945312 93.20496094 215.15890625 93.40992188 213.6953125 93.62109375 C211.83851526 93.8930489 209.98174585 94.16519416 208.125 94.4375 C206.71927734 94.63956055 206.71927734 94.63956055 205.28515625 94.84570312 C204.38925781 94.97783203 203.49335938 95.10996094 202.5703125 95.24609375 C201.74289551 95.36654053 200.91547852 95.4869873 200.06298828 95.61108398 C197.94672233 95.91256672 197.94672233 95.91256672 196 97 C195.36198164 99.5315866 194.83312632 101.99839502 194.375 104.5625 C194.17390625 105.62887695 194.17390625 105.62887695 193.96875 106.71679688 C193.63808153 108.47642553 193.31804233 110.23804548 193 112 C193.67417969 112.24492187 194.34835937 112.48984375 195.04296875 112.7421875 C198.64090714 114.27261836 201.93876063 116.15843308 205.3125 118.125 C205.95767578 118.49753906 206.60285156 118.87007813 207.26757812 119.25390625 C208.84675945 120.16632213 210.42361864 121.08275509 212 122 C211.16775145 126.61372741 209.69939315 130.64068715 208 135 C200.1177798 134.48400816 192.65541695 132.9078547 185 131 C184.71640625 131.75152344 184.4328125 132.50304687 184.140625 133.27734375 C183.16877215 135.59714319 182.12464065 137.4763376 180.75 139.5625 C178.65292139 142.68488588 178.65292139 142.68488588 179.609375 144.90625 C181.96725186 148.45631179 184.9753896 151.38648875 187.90625 154.46484375 C190 157 190 157 192 162 C189.36 164.97 186.72 167.94 184 171 C179.64291837 169.91072959 176.60302561 167.95890918 172.9375 165.5 C168.21170527 162.2903621 168.21170527 162.2903621 163 160 C163 160.66 163 161.32 163 162 C161.03125 163.7265625 161.03125 163.7265625 158.5 165.625 C157.6646875 166.25664062 156.829375 166.88828125 155.96875 167.5390625 C154.99421875 168.26222656 154.99421875 168.26222656 154 169 C154.71678198 174.59256636 156.67566364 179.02483604 159.0390625 184.09765625 C160.11486588 187.34693231 160.25896192 188.82848743 159 192 C157.07421875 193.65234375 157.07421875 193.65234375 154.6875 194.9375 C153.90761719 195.37964844 153.12773437 195.82179688 152.32421875 196.27734375 C150 197 150 197 148.02954102 196.2487793 C145.89100159 194.93293313 144.7197558 193.72825164 143.203125 191.7421875 C142.71972656 191.11699219 142.23632812 190.49179687 141.73828125 189.84765625 C141.24714844 189.19667969 140.75601563 188.54570312 140.25 187.875 C139.74339844 187.21628906 139.23679687 186.55757812 138.71484375 185.87890625 C137.46969142 184.25785888 136.23391431 182.62961787 135 181 C130.02128725 181.80301819 125.96592747 183.34469084 121 185 C120.67 192.59 120.34 200.18 120 208 C113.565 208.99 113.565 208.99 107 210 C104.08756408 203.07041109 101.86716832 196.28195644 100 189 C94.72 189 89.44 189 84 189 C83.5875 190.44375 83.175 191.8875 82.75 193.375 C81.15035377 198.7326668 79.13936147 203.83602403 77 209 C72.71 208.67 68.42 208.34 64 208 C64 200.08 64 192.16 64 184 C62.02 183.67 60.04 183.34 58 183 C56.7315625 182.443125 56.7315625 182.443125 55.4375 181.875 C52.36001137 180.77026049 51.09550665 180.95595338 48 182 C45.51588372 184.39670764 45.51588372 184.39670764 43.3125 187.375 C42.54550781 188.35210937 41.77851563 189.32921875 40.98828125 190.3359375 C39.60715922 192.18647822 38.28086498 194.07870254 37 196 C31.71862571 195.48474397 28.42778844 193.74522883 24 191 C24.40677676 185.0339408 26.43739955 180.21879578 28.84375 174.76953125 C29.79332437 172.49504399 30.49530981 170.40301354 31 168 C29.6436006 166.79129742 28.26392171 165.60868646 26.875 164.4375 C25.72644531 163.44556641 25.72644531 163.44556641 24.5546875 162.43359375 C22.07261206 160.76277272 22.07261206 160.76277272 19.140625 161.0234375 C14.65181107 162.41921298 10.94446095 164.84520633 7.03515625 167.38085938 C5.2421875 168.48046875 5.2421875 168.48046875 2 170 C-1.38601744 169.18616774 -3.09544751 167.01922351 -5.25 164.375 C-5.77078125 163.74335938 -6.2915625 163.11171875 -6.828125 162.4609375 C-7.21484375 161.97882813 -7.6015625 161.49671875 -8 161 C-6.70872999 158.16035719 -5.34770483 156.10764367 -3.14453125 153.90625 C-2.60505859 153.35066406 -2.06558594 152.79507813 -1.50976562 152.22265625 C-0.37246774 151.0683447 0.77085152 149.91993682 1.91992188 148.77734375 C3.75756847 146.92491731 3.75756847 146.92491731 6 144 C5.55851374 140.67894533 4.09269418 138.1359796 2.4375 135.25 C1.98246094 134.45078125 1.52742188 133.6515625 1.05859375 132.828125 C0.70925781 132.22484375 0.35992187 131.6215625 0 131 C-4.8598774 131.37843308 -9.59466254 131.79057824 -14.3125 133.0625 C-17.47983981 133.86775588 -19.78849093 134.08291331 -23 134 C-23.70133599 132.42274653 -24.385583 130.83788667 -25.0625 129.25 C-25.44535156 128.36828125 -25.82820312 127.4865625 -26.22265625 126.578125 C-27.0818281 123.72861033 -27.05667993 122.7292533 -26 120 C-24.44946289 118.71972656 -24.44946289 118.71972656 -22.47265625 117.640625 C-21.76302734 117.24746094 -21.05339844 116.85429687 -20.32226562 116.44921875 C-19.57654297 116.05347656 -18.83082031 115.65773438 -18.0625 115.25 C-17.32064453 114.83878906 -16.57878906 114.42757812 -15.81445312 114.00390625 C-10.31061825 111 -10.31061825 111 -8 111 C-8.66 106.05 -9.32 101.1 -10 96 C-12.36478516 95.58427734 -12.36478516 95.58427734 -14.77734375 95.16015625 C-16.83076612 94.79447829 -18.88414955 94.4285816 -20.9375 94.0625 C-21.97841797 93.88009766 -23.01933594 93.69769531 -24.09179688 93.50976562 C-25.57583008 93.24389648 -25.57583008 93.24389648 -27.08984375 92.97265625 C-28.46450806 92.72914429 -28.46450806 92.72914429 -29.86694336 92.48071289 C-32 92 -32 92 -33 91 C-33.0989294 88.83519203 -33.129711 86.66706215 -33.125 84.5 C-33.12757813 83.3140625 -33.13015625 82.128125 -33.1328125 80.90625 C-33 78 -33 78 -32 77 C-24.68850717 75.64087582 -17.43677001 74.7025292 -10 75 C-9.34 70.05 -8.68 65.1 -8 60 C-17.405 54.555 -17.405 54.555 -27 49 C-25 40 -25 40 -23 36 C-18.1401226 36.37843308 -13.40533746 36.79057824 -8.6875 38.0625 C-4.3587379 39.18181664 -4.3587379 39.18181664 0 39 C1.95535051 36.96543803 1.95535051 36.96543803 3.375 34.25 C4.16003906 32.92742187 4.16003906 32.92742187 4.9609375 31.578125 C6.14334103 28.64434181 6.02574998 27.89828337 5 25 C3.21273167 22.76025868 1.41330816 20.62536246 -0.5 18.5 C-6.49278636 11.84302573 -6.49278636 11.84302573 -7 8 C-5.56640625 5.859375 -5.56640625 5.859375 -3.5625 3.75 C-2.90378906 3.04359375 -2.24507812 2.3371875 -1.56640625 1.609375 C-1.04949219 1.07828125 -0.53257812 0.5471875 0 0 Z " fill="#FAFBFB" transform="translate(210,297)"/>
<path d="M0 0 C1.0662628 3.1846657 1.04185251 4.79854946 -0.4375 7.8125 C-3.00538421 12.61721715 -6.79617559 15.64736318 -11 19 C-14.09793472 21.58161227 -15.38493887 23.76080445 -16.875 27.4375 C-19.55443767 33.75849002 -23.55442995 36.29965169 -29.5 39.1875 C-34.30480978 41.71889307 -36.14110591 44.99256437 -38.65625 49.6875 C-40.71802182 53.23566546 -43.38967503 55.19483751 -47 57 C-67.47737232 58.80763362 -86.50136736 54.25146932 -106.16162109 49.22338867 C-112.60333983 47.5770318 -119.05524487 46.05256836 -125.5625 44.6875 C-126.31740723 44.52830078 -127.07231445 44.36910156 -127.85009766 44.20507812 C-135.56399861 42.61717922 -143.06363035 41.77610318 -150.9375 41.6875 C-151.79279297 41.65849609 -152.64808594 41.62949219 -153.52929688 41.59960938 C-161.02362236 41.52529493 -166.04939989 43.57395102 -171.8125 48.3125 C-174.57376652 51.45357603 -174.57376652 51.45357603 -177 58 C-193.83 58 -210.66 58 -228 58 C-228 42.5591911 -225.04128991 29.55356144 -214.2265625 17.9765625 C-205.57420739 10.2956999 -196.23848994 5.68955315 -185 3 C-184.38068604 2.82855469 -183.76137207 2.65710938 -183.12329102 2.48046875 C-160.44341037 -2.65164636 -133.8268411 4.73332432 -111.45959473 8.57897949 C-106.87691612 9.36341835 -102.28909046 10.1164513 -97.7019043 10.87402344 C-94.94938061 11.33147696 -92.19932004 11.8016999 -89.44921875 12.2734375 C-58.86826166 17.3235924 -27.80945158 13.99763042 0 0 Z " fill="#FBFCFC" transform="translate(397,93)"/>
<path d="M0 0 C0.680625 0.7425 0.680625 0.7425 1.375 1.5 C2.87635519 3.22609337 2.87635519 3.22609337 5 3 C5.66 3.66 6.32 4.32 7 5 C7.66 5 8.32 5 9 5 C9 5.99 9 6.98 9 8 C10.32 7.67 11.64 7.34 13 7 C12.39254603 11.85963179 10.27241033 15.7405518 8 20 C7.5875 19.505 7.175 19.01 6.75 18.5 C4.87797662 16.56613908 4.87797662 16.56613908 1 17 C-0.34164079 16.7018576 -1.67851173 16.37756808 -3 16 C-3.2475 16.9075 -3.495 17.815 -3.75 18.75 C-5 22 -5 22 -7 23.875 C-9.9043597 26.96088218 -10.1753462 29.87673099 -11 34 C-11.66 34 -12.32 34 -13 34 C-13.33 34.99 -13.66 35.98 -14 37 C-14.66 37 -15.32 37 -16 37 C-14.64958277 32.75526282 -13.06528162 28.71513191 -11.25 24.6484375 C-10.46109375 22.87726563 -10.46109375 22.87726563 -9.65625 21.0703125 C-9.38425781 20.46348633 -9.11226563 19.85666016 -8.83203125 19.23144531 C-7.99969946 17.37432943 -7.17137616 15.51546706 -6.34375 13.65625 C-1.95133328 3.81637529 -1.95133328 3.81637529 0 0 Z " fill="#172849" transform="translate(368,306)"/>
<path d="M0 0 C16.83 0 33.66 0 51 0 C41.7166384 4.6416808 30.01886617 3.12499999 19.8125 3.0625 C18.36914219 3.05747088 16.92578267 3.05291049 15.48242188 3.04882812 C11.98824495 3.0379438 8.49413388 3.0207585 5 3 C5 2.34 5 1.68 5 1 C3.35 1 1.7 1 0 1 C0 0.67 0 0.34 0 0 Z " fill="#1B293E" transform="translate(169,151)"/>
<path d="M0 0 C1 2 1 2 0.36328125 4.2421875 C-1.59080578 9.13830148 -3.26626885 12.26626885 -7 16 C-7.91911788 18.65408196 -8.44688703 21.23443517 -9 24 C-9.66 24 -10.32 24 -11 24 C-11.33 24.99 -11.66 25.98 -12 27 C-12.66 27 -13.32 27 -14 27 C-12.27360915 21.37289902 -9.94594871 16.05892319 -7.5625 10.6875 C-7.16740234 9.76904297 -6.77230469 8.85058594 -6.36523438 7.90429688 C-5.97787109 7.03224609 -5.59050781 6.16019531 -5.19140625 5.26171875 C-4.66848999 4.07002075 -4.66848999 4.07002075 -4.13500977 2.85424805 C-3 1 -3 1 0 0 Z " fill="#203147" transform="translate(366,316)"/>
<path d="M0 0 C1.8359375 2.14453125 1.8359375 2.14453125 3.375 4.8125 C4.16003906 6.12154297 4.16003906 6.12154297 4.9609375 7.45703125 C6 10 6 10 5.88671875 12.12109375 C4.77751908 14.47142433 3.4607071 15.63143432 1.4375 17.25 C0.79683594 17.77078125 0.15617188 18.2915625 -0.50390625 18.828125 C-0.99761719 19.21484375 -1.49132812 19.6015625 -2 20 C-1.74438677 17.6568787 -1.40729228 15.32156597 -1 13 C-0.34 12.67 0.32 12.34 1 12 C0.67 10.02 0.34 8.04 0 6 C-0.66 6 -1.32 6 -2 6 C-2.33 4.68 -2.66 3.36 -3 2 C-5.64 1.67 -8.28 1.34 -11 1 C-11 0.67 -11 0.34 -11 0 C-6.98865969 -0.83958286 -3.92340704 -1.29760108 0 0 Z " fill="#243149" transform="translate(211,428)"/>
<path d="M0 0 C0.66 0 1.32 0 2 0 C0.60121198 4.46797338 -1.13630772 8.63822079 -3.125 12.875 C-3.66382813 14.02742188 -4.20265625 15.17984375 -4.7578125 16.3671875 C-5.16773438 17.23601562 -5.57765625 18.10484375 -6 19 C-7.9735384 15.43708525 -7.96666325 13.96331931 -7 10 C-6.9629721 8.3337447 -6.95240038 6.66598681 -7 5 C-6.34 4.67 -5.68 4.34 -5 4 C-4.34 3.34 -3.68 2.68 -3 2 C-2.01 2 -1.02 2 0 2 C0 1.34 0 0.68 0 0 Z " fill="#1B2946" transform="translate(321,295)"/>
<path d="M0 0 C0.33 0 0.66 0 1 0 C1 1.65 1 3.3 1 5 C1.66 5 2.32 5 3 5 C3 6.65 3 8.3 3 10 C6.96 10 10.92 10 15 10 C15.33 8.35 15.66 6.7 16 5 C18.5625 3.6875 18.5625 3.6875 21 3 C19.68 5.97 18.36 8.94 17 12 C12.38 12 7.76 12 3 12 C-1.06153846 5.72307692 -1.06153846 5.72307692 -0.75 2.0625 C-0.5025 1.381875 -0.255 0.70125 0 0 Z " fill="#1A283E" transform="translate(293,453)"/>
<path d="M0 0 C1.07156762 4.28627048 1.0365854 4.66075382 -0.9375 8.25 C-1.31777344 8.95640625 -1.69804687 9.6628125 -2.08984375 10.390625 C-2.39019531 10.92171875 -2.69054687 11.4528125 -3 12 C-3.33 11.34 -3.66 10.68 -4 10 C-6.52733235 9.34444881 -6.52733235 9.34444881 -9 9 C-9.33 7.68 -9.66 6.36 -10 5 C-6.7 3.35 -3.4 1.7 0 0 Z " fill="#E5EBF1" transform="translate(397,93)"/>
<path d="M0 0 C0.66 0 1.32 0 2 0 C2 0.66 2 1.32 2 2 C1.34 2 0.68 2 0 2 C0 3.32 0 4.64 0 6 C-0.66 6 -1.32 6 -2 6 C-2.2165625 7.0828125 -2.2165625 7.0828125 -2.4375 8.1875 C-2.95833333 10.79166667 -3.47916667 13.39583333 -4 16 C-4.99 16.33 -5.98 16.66 -7 17 C-7.66 17.66 -8.32 18.32 -9 19 C-9.99 18.34 -10.98 17.68 -12 17 C-12 16.34 -12 15.68 -12 15 C-11.278125 14.484375 -10.55625 13.96875 -9.8125 13.4375 C-6.55235662 10.61204241 -5.05142344 7.82396388 -3.11328125 4.0234375 C-2 2 -2 2 0 0 Z " fill="#213048" transform="translate(364,133)"/>
<path d="M0 0 C0.5775 0.2475 1.155 0.495 1.75 0.75 C0.1 2.4 -1.55 4.05 -3.25 5.75 C-2.59 6.08 -1.93 6.41 -1.25 6.75 C-1.91 7.41 -2.57 8.07 -3.25 8.75 C-3.6625 9.265625 -4.075 9.78125 -4.5 10.3125 C-6.92573356 12.30506686 -9.18413597 12.40934844 -12.25 12.75 C-3.80585106 -0.42287234 -3.80585106 -0.42287234 0 0 Z " fill="#202F48" transform="translate(261.25,477.25)"/>
<path d="M0 0 C0.33 0 0.66 0 1 0 C1.23509196 4.81938524 0.45184478 8.46298506 -1 13 C-0.34 13 0.32 13 1 13 C1 13.66 1 14.32 1 15 C-1.64 15.66 -4.28 16.32 -7 17 C-5.1668733 11.00067626 -2.92678249 5.55079437 0 0 Z " fill="#1B2A48" transform="translate(340,368)"/>
<path d="M0 0 C1.29164063 0.00290039 1.29164063 0.00290039 2.609375 0.00585938 C3.5065625 0.01810547 4.40375 0.03035156 5.328125 0.04296875 C6.65070313 0.04393555 6.65070313 0.04393555 8 0.04492188 C12.95857157 0.0781266 17.68997817 0.39574422 22.578125 1.23046875 C22.578125 1.56046875 22.578125 1.89046875 22.578125 2.23046875 C12.39451623 3.16938303 2.76173377 3.16938303 -7.421875 2.23046875 C-4.28457676 0.13893659 -3.5694793 -0.0188607 0 0 Z " fill="#29364A" transform="translate(240.421875,133.76953125)"/>
<path d="M0 0 C1.32 0.33 2.64 0.66 4 1 C3.29875 2.0725 2.5975 3.145 1.875 4.25 C0.74173035 6.12515437 0.74173035 6.12515437 0 8 C0.54217768 10.33664149 0.54217768 10.33664149 2 12 C2.33 12.66 2.66 13.32 3 14 C2.34 14.66 1.68 15.32 1 16 C1 15.34 1 14.68 1 14 C-0.65 14.33 -2.3 14.66 -4 15 C-3.34 13.35 -2.68 11.7 -2 10 C-2.66 9.67 -3.32 9.34 -4 9 C-2.80100302 5.9168649 -1.52299523 2.93720508 0 0 Z " fill="#EBF0F2" transform="translate(389,432)"/>
<path d="M0 0 C1.32 0.33 2.64 0.66 4 1 C3.67 1.825 3.34 2.65 3 3.5 C1.83217191 7.5873983 1.8541115 10.76923344 2 15 C0.68 15 -0.64 15 -2 15 C-1.85816304 13.24967156 -1.71136571 11.49974466 -1.5625 9.75 C-1.48128906 8.77546875 -1.40007812 7.8009375 -1.31640625 6.796875 C-1.04925416 4.43538247 -0.64628032 2.28098935 0 0 Z " fill="#273349" transform="translate(405,394)"/>
<path d="M0 0 C2.31 0.33 4.62 0.66 7 1 C3.88250642 3.7511302 1.95828878 4.37114573 -2.17578125 4.328125 C-3.16900391 4.32296875 -4.16222656 4.3178125 -5.18554688 4.3125 C-6.73338867 4.2815625 -6.73338867 4.2815625 -8.3125 4.25 C-9.33279297 4.24484375 -10.35308594 4.2396875 -11.40429688 4.234375 C-16.69648673 4.17964 -21.78555471 3.91197633 -27 3 C-27 2.67 -27 2.34 -27 2 C-18.09 2 -9.18 2 0 2 C0 1.34 0 0.68 0 0 Z " fill="#D8E1EB" transform="translate(347,146)"/>
<path d="M0 0 C1.8125 1.5625 1.8125 1.5625 3 3 C1 4 1 4 -2.3125 3.3125 C-6.0695159 2.61087593 -6.0695159 2.61087593 -8.9375 4.9375 C-9.618125 5.618125 -10.29875 6.29875 -11 7 C-12.32 6.34 -13.64 5.68 -15 5 C-13.4493684 3.96122737 -11.88390319 2.94457445 -10.3125 1.9375 C-9.44238281 1.36902344 -8.57226562 0.80054688 -7.67578125 0.21484375 C-4.53921134 -1.20920478 -3.21589033 -1.1013323 0 0 Z " fill="#243247" transform="translate(233,458)"/>
<path d="M0 0 C0.66 0.33 1.32 0.66 2 1 C-0.64 6.61 -3.28 12.22 -6 18 C-6.66 17.67 -7.32 17.34 -8 17 C-6.36728377 10.00264472 -4.65573782 5.58688539 0 0 Z " fill="#E3E9F0" transform="translate(353,336)"/>
<path d="M0 0 C0.66 0 1.32 0 2 0 C3.06080085 2.0736559 4.09809524 4.15935086 5.125 6.25 C5.70507812 7.41015625 6.28515625 8.5703125 6.8828125 9.765625 C7.25148437 10.83296875 7.62015625 11.9003125 8 13 C7.34 14.32 6.68 15.64 6 17 C5.01 14.03 4.02 11.06 3 8 C2.34 8 1.68 8 1 8 C0.67 5.36 0.34 2.72 0 0 Z " fill="#28364D" transform="translate(236,307)"/>
<path d="M0 0 C0.66 0 1.32 0 2 0 C4.31 5.28 6.62 10.56 9 16 C8.01 16 7.02 16 6 16 C6 15.01 6 14.02 6 13 C5.34 13 4.68 13 4 13 C3.32694982 11.39850114 2.66177773 9.79368971 2 8.1875 C1.62875 7.29417969 1.2575 6.40085938 0.875 5.48046875 C0 3 0 3 0 0 Z " fill="#263348" transform="translate(264,195)"/>
<path d="M0 0 C1.125 3.75 1.125 3.75 0 6 C0.495 6.391875 0.99 6.78375 1.5 7.1875 C3.45593143 9.55091715 3.24207973 11.01435003 3 14 C-0.28788824 10.88983545 -2.83735988 7.98381075 -5 4 C-4.34 4 -3.68 4 -3 4 C-3 3.34 -3 2.68 -3 2 C-2.01 1.34 -1.02 0.68 0 0 Z " fill="#F2F4F3" transform="translate(350,473)"/>
<path d="M0 0 C2.24973447 -0.054138 4.49984383 -0.09285491 6.75 -0.125 C8.00296875 -0.14820313 9.2559375 -0.17140625 10.546875 -0.1953125 C13.72820492 -0.01537302 15.36521896 0.31001418 18 2 C18 2.66 18 3.32 18 4 C11.7945858 3.51679152 6.00054754 2.66681876 0 1 C0 0.67 0 0.34 0 0 Z " fill="#DDE2E9" transform="translate(400,428)"/>
<path d="M0 0 C2 3 2 3 1.7578125 5.48046875 C1.54898437 6.37378906 1.34015625 7.26710937 1.125 8.1875 C0.92132813 9.08855469 0.71765625 9.98960937 0.5078125 10.91796875 C0.34023438 11.60503906 0.17265625 12.29210937 0 13 C-0.66 13 -1.32 13 -2 13 C-2 12.34 -2 11.68 -2 11 C-2.66 11 -3.32 11 -4 11 C-3.52269162 9.5410574 -3.04308958 8.08286504 -2.5625 6.625 C-2.29566406 5.81289062 -2.02882813 5.00078125 -1.75390625 4.1640625 C-1 2 -1 2 0 0 Z " fill="#212E4B" transform="translate(412,210)"/>
<path d="M0 0 C0.33 0.99 0.66 1.98 1 3 C-0.28062485 4.7074998 -1.61767557 6.37373596 -3 8 C-4.09658936 11.28976808 -3.79953138 12.71303767 -3 16 C-4.65 14.35 -6.3 12.7 -8 11 C-6.63629701 8.00779732 -5.05091917 5.70973471 -2.875 3.25 C-2.33617187 2.63640625 -1.79734375 2.0228125 -1.2421875 1.390625 C-0.62730469 0.70226562 -0.62730469 0.70226562 0 0 Z " fill="#DCE3EA" transform="translate(210,447)"/>
<path d="M0 0 C2.6855594 2.6855594 3.06049974 5.37621328 4 9 C1 11 1 11 -2 11 C-1.85892253 9.54119891 -1.71197585 8.08296449 -1.5625 6.625 C-1.48128906 5.81289063 -1.40007812 5.00078125 -1.31640625 4.1640625 C-1 2 -1 2 0 0 Z " fill="#1E2D4A" transform="translate(282,405)"/>
<path d="M0 0 C0.33 1.32 0.66 2.64 1 4 C-1.31 5.32 -3.62 6.64 -6 8 C-6 7.34 -6 6.68 -6 6 C-6.66 6 -7.32 6 -8 6 C-8 4.68 -8 3.36 -8 2 C-6.8553125 2.061875 -6.8553125 2.061875 -5.6875 2.125 C-2.77281584 2.22080824 -2.77281584 2.22080824 0 0 Z " fill="#E8EEF2" transform="translate(421,343)"/>
<path d="M0 0 C0.33 0.66 0.66 1.32 1 2 C1.66 2 2.32 2 3 2 C2.65120368 5.25543229 1.97866739 6.01873107 -0.5625 8.25 C-1.366875 8.8275 -2.17125 9.405 -3 10 C-3.99928333 7.301935 -4.03624754 6.11989571 -3.1875 3.3125 C-2 1 -2 1 0 0 Z " fill="#F1F4F7" transform="translate(390,101)"/>
<path d="M0 0 C0.99 0.66 1.98 1.32 3 2 C2.01 4.31 1.02 6.62 0 9 C-0.66 9 -1.32 9 -2 9 C-2 9.66 -2 10.32 -2 11 C-3.65 11 -5.3 11 -7 11 C-6.57847656 10.45730469 -6.15695312 9.91460937 -5.72265625 9.35546875 C-5.17480469 8.64003906 -4.62695312 7.92460938 -4.0625 7.1875 C-3.51722656 6.47980469 -2.97195313 5.77210937 -2.41015625 5.04296875 C-0.83143752 2.95874948 -0.83143752 2.95874948 0 0 Z " fill="#28344F" transform="translate(396,99)"/>
<path d="M0 0 C2 2 2 2 3 5 C1.35 5.66 -0.3 6.32 -2 7 C-1.67 8.32 -1.34 9.64 -1 11 C-1.66 11 -2.32 11 -3 11 C-3.33 11.99 -3.66 12.98 -4 14 C-5.06528748 11.26980214 -5.07998186 10.20701188 -4.00390625 7.421875 C-3.52824219 6.54015625 -3.05257813 5.6584375 -2.5625 4.75 C-2.08941406 3.85796875 -1.61632812 2.9659375 -1.12890625 2.046875 C-0.75636719 1.37140625 -0.38382812 0.6959375 0 0 Z " fill="#E7ECF0" transform="translate(315,453)"/>
<path d="M0 0 C1.20681069 3.94567184 0.61287128 6.18004171 -1 10 C-1.99 10.495 -1.99 10.495 -3 11 C-3.59070014 12.94603274 -3.59070014 12.94603274 -4 15 C-4.33 15.66 -4.66 16.32 -5 17 C-5.66 17 -6.32 17 -7 17 C-5.1668733 11.00067626 -2.92678249 5.55079437 0 0 Z " fill="#27334A" transform="translate(350,346)"/>
<path d="M0 0 C1.32 0 2.64 0 4 0 C2.58192622 4.47238653 0.88695626 8.71146306 -1 13 C-3 10 -3 10 -2.5390625 7.51953125 C-2.23742187 6.62621094 -1.93578125 5.73289063 -1.625 4.8125 C-1.32851563 3.91144531 -1.03203125 3.01039063 -0.7265625 2.08203125 C-0.48679687 1.39496094 -0.24703125 0.70789063 0 0 Z " fill="#212D45" transform="translate(356,214)"/>
<path d="M0 0 C1.65 0.33 3.3 0.66 5 1 C4.25 5.75 4.25 5.75 2 8 C1.67 7.34 1.34 6.68 1 6 C0.34 6 -0.32 6 -1 6 C-1 6.66 -1 7.32 -1 8 C-1.66 8 -2.32 8 -3 8 C-1.125 2.25 -1.125 2.25 0 0 Z " fill="#1E2E4D" transform="translate(377,287)"/>
<path d="M0 0 C0.66 0.99 1.32 1.98 2 3 C1.5390625 5.26171875 1.5390625 5.26171875 0.625 7.6875 C0.32851563 8.49574219 0.03203125 9.30398438 -0.2734375 10.13671875 C-0.51320313 10.75160156 -0.75296875 11.36648438 -1 12 C-1.66 12 -2.32 12 -3 12 C-3.33 12.99 -3.66 13.98 -4 15 C-4.66 15 -5.32 15 -6 15 C-4.40109514 9.80355921 -2.25861997 4.93387858 0 0 Z " fill="#2F3B52" transform="translate(358,328)"/>
<path d="M0 0 C2.97526665 2.55022856 4.50122302 5.40293526 6 9 C5.67 9.99 5.34 10.98 5 12 C4.67 10.68 4.34 9.36 4 8 C3.01 8 2.02 8 1 8 C-1 5 -1 5 -0.625 2.3125 C-0.41875 1.549375 -0.2125 0.78625 0 0 Z " fill="#25314C" transform="translate(178,180)"/>
<path d="M0 0 C1.32 0.66 2.64 1.32 4 2 C3.45276317 5.37462715 2.9451 7.08235 1 10 C0.34 10 -0.32 10 -1 10 C-1 8.35 -1 6.7 -1 5 C-0.34 5 0.32 5 1 5 C0.67 3.35 0.34 1.7 0 0 Z " fill="#1F2C3F" transform="translate(213,321)"/>
<path d="M0 0 C0.33 0.66 0.66 1.32 1 2 C1.66 2 2.32 2 3 2 C5 4 5 4 5 7 C5.99 7.33 6.98 7.66 8 8 C5.69 8 3.38 8 1 8 C0.26919734 6.02253397 -0.39421747 4.01927511 -1 2 C-0.67 1.34 -0.34 0.68 0 0 Z " fill="#1F2A44" transform="translate(394,329)"/>
<path d="M0 0 C0.99 0 1.98 0 3 0 C3.66 0.99 4.32 1.98 5 3 C4.38125 3.598125 3.7625 4.19625 3.125 4.8125 C0.86323046 7.00811144 0.86323046 7.00811144 -1 10 C-2.25 3.375 -2.25 3.375 0 0 Z " fill="#1C2A45" transform="translate(203,298)"/>
<path d="M0 0 C3.42931954 3.7559214 4.56429083 8.23466745 6 13 C5.34 13.66 4.68 14.32 4 15 C1.94637945 9.91059256 0.56820748 5.45479185 0 0 Z " fill="#28364A" transform="translate(191,207)"/>
<path d="M0 0 C0.66 0.33 1.32 0.66 2 1 C2 1.99 2 2.98 2 4 C-3.445 5.485 -3.445 5.485 -9 7 C-6.58398221 2.16796442 -4.97813602 1.68901043 0 0 Z " fill="#EFF5F9" transform="translate(345,473)"/>
<path d="M0 0 C0.66 0.33 1.32 0.66 2 1 C1.21447823 2.96080624 0.42137877 4.91857816 -0.375 6.875 C-0.81585938 7.96554687 -1.25671875 9.05609375 -1.7109375 10.1796875 C-3 13 -3 13 -5 15 C-5.33 13.35 -5.66 11.7 -6 10 C-5.34 9.67 -4.68 9.34 -4 9 C-3.67 8.01 -3.34 7.02 -3 6 C-2.34 6 -1.68 6 -1 6 C-0.67 4.02 -0.34 2.04 0 0 Z " fill="#27344B" transform="translate(367,402)"/>
<path d="M0 0 C0.33 0 0.66 0 1 0 C1.77916092 5.02125926 2.13016601 8.97703996 1 14 C0.34 14 -0.32 14 -1 14 C-1.02694851 12.04174127 -1.04637218 10.08337774 -1.0625 8.125 C-1.07410156 7.03445313 -1.08570313 5.94390625 -1.09765625 4.8203125 C-1 2 -1 2 0 0 Z " fill="#374254" transform="translate(235,374)"/>
<path d="M0 0 C0.66 0 1.32 0 2 0 C3.32 3.3 4.64 6.6 6 10 C4.35 10.66 2.7 11.32 1 12 C1.020625 11.13375 1.04125 10.2675 1.0625 9.375 C1.00261044 6.14096352 0.60419067 3.17200103 0 0 Z " fill="#25334A" transform="translate(184,194)"/>
<path d="M0 0 C-0.33 1.98 -0.66 3.96 -1 6 C-1.165 5.360625 -1.33 4.72125 -1.5 4.0625 C-2.781786 1.83880759 -2.781786 1.83880759 -4.9140625 1.51171875 C-6.93575155 1.2724022 -8.96841939 1.13106972 -11 1 C-11 0.67 -11 0.34 -11 0 C-6.98195309 -0.84098656 -3.98196457 -1.05404945 0 0 Z " fill="#313E53" transform="translate(211,428)"/>
<path d="M0 0 C2.97 1.98 2.97 1.98 6 4 C5.67 5.98 5.34 7.96 5 10 C4.01 10 3.02 10 2 10 C2.04125 9.21625 2.0825 8.4325 2.125 7.625 C2.28728734 4.83883881 2.28728734 4.83883881 0 3 C0 2.01 0 1.02 0 0 Z " fill="#E4EBEF" transform="translate(214,318)"/>
<path d="M0 0 C1.65 0 3.3 0 5 0 C5.33 1.32 5.66 2.64 6 4 C3.525 5.485 3.525 5.485 1 7 C1 6.34 1 5.68 1 5 C0.34 5 -0.32 5 -1 5 C-0.67 3.35 -0.34 1.7 0 0 Z " fill="#1E2C4E" transform="translate(338,434)"/>
<path d="M0 0 C0.66 0.66 1.32 1.32 2 2 C0.68 4.97 -0.64 7.94 -2 11 C-4 8 -4 8 -3.8125 5.5 C-2.95559826 2.86337925 -2.11007147 1.74310252 0 0 Z " fill="#ECF1F6" transform="translate(374,289)"/>
<path d="M0 0 C0 0.99 0 1.98 0 3 C-3.3 3.33 -6.6 3.66 -10 4 C-10.33 3.34 -10.66 2.68 -11 2 C-7.12315913 0.80712589 -4.08378077 0 0 0 Z " fill="#253247" transform="translate(328,505)"/>
<path d="M0 0 C0.53625 0.165 1.0725 0.33 1.625 0.5 C4.10533398 1.11540717 4.10533398 1.11540717 7.125 0.9375 C10 1 10 1 12 3 C6.96488101 4.0070238 3.76052962 3.97387813 -1 2 C-0.67 1.34 -0.34 0.68 0 0 Z " fill="#263148" transform="translate(187,330)"/>
<path d="M0 0 C3.875 0.875 3.875 0.875 5 2 C5.14115161 4.67058851 5.04247107 7.32432238 5 10 C2.35534962 6.8745041 1.15585285 3.91211733 0 0 Z " fill="#E3EDF2" transform="translate(243,319)"/>
<path d="M0 0 C1.17571451 3.67410785 1.07366746 7.16929183 1 11 C-1.64 10.34 -4.28 9.68 -7 9 C-6.401875 8.814375 -5.80375 8.62875 -5.1875 8.4375 C-1.90018201 6.27726247 -1.35145313 3.64892345 0 0 Z " fill="#25334A" transform="translate(308,437)"/>
<path d="M0 0 C0.66 0.33 1.32 0.66 2 1 C2 2.65 2 4.3 2 6 C1.01 6.33 0.02 6.66 -1 7 C-1.66 7.66 -2.32 8.32 -3 9 C-3.33 8.34 -3.66 7.68 -4 7 C-3.22265625 5.2734375 -3.22265625 5.2734375 -2.0625 3.375 C-1.381875 2.26125 -0.70125 1.1475 0 0 Z " fill="#26334B" transform="translate(394,430)"/>
<path d="M0 0 C2.625 0.375 2.625 0.375 5 1 C4.01 2.175625 4.01 2.175625 3 3.375 C0.79798559 5.71512812 0.79798559 5.71512812 1 8 C0.34 8 -0.32 8 -1 8 C-1.625 5.125 -1.625 5.125 -2 2 C-1.34 1.34 -0.68 0.68 0 0 Z " fill="#EDEFF4" transform="translate(185,416)"/>
<path d="M0 0 C-0.33 0.99 -0.66 1.98 -1 3 C-3.875 3.625 -3.875 3.625 -7 4 C-7.66 3.34 -8.32 2.68 -9 2 C-3.375 -1.125 -3.375 -1.125 0 0 Z " fill="#212E48" transform="translate(417,352)"/>
<path d="M0 0 C0.66 0 1.32 0 2 0 C2.6875 1.625 2.6875 1.625 3 4 C1.5625 7.25 1.5625 7.25 0 10 C-1.125 8.375 -1.125 8.375 -2 6 C-1.125 2.75 -1.125 2.75 0 0 Z " fill="#212D45" transform="translate(372,325)"/>
<path d="M0 0 C1.65 1.65 3.3 3.3 5 5 C4.01 5.495 4.01 5.495 3 6 C3 6.99 3 7.98 3 9 C2.34 9 1.68 9 1 9 C-1.125 3.375 -1.125 3.375 0 0 Z " fill="#273652" transform="translate(205,310)"/>
<path d="M0 0 C-0.33 0.66 -0.66 1.32 -1 2 C-6.28 2 -11.56 2 -17 2 C-17 1.67 -17 1.34 -17 1 C-14.91835982 0.63601378 -12.83459438 0.28416713 -10.75 -0.0625 C-9.00976562 -0.35833984 -9.00976562 -0.35833984 -7.234375 -0.66015625 C-4.37477376 -0.9606216 -2.66674071 -0.9439206 0 0 Z " fill="#15263B" transform="translate(354,150)"/>
<path d="M0 0 C0 0.99 0 1.98 0 3 C-1.43836751 2.88541307 -2.87570966 2.75790884 -4.3125 2.625 C-5.11300781 2.55539063 -5.91351563 2.48578125 -6.73828125 2.4140625 C-9 2 -9 2 -12 0 C-11.05125 0.020625 -10.1025 0.04125 -9.125 0.0625 C-0.375 -0.1125 -0.375 -0.1125 0 0 Z " fill="#CED6DF" transform="translate(294,139)"/>
<path d="M0 0 C-1.0625 1.5 -1.0625 1.5 -3 3 C-6.6875 3.1875 -6.6875 3.1875 -10 3 C-10.33 2.01 -10.66 1.02 -11 0 C-3.57142857 -1.28571429 -3.57142857 -1.28571429 0 0 Z " fill="#E0E6EC" transform="translate(361,107)"/>
<path d="M0 0 C2.64 0.33 5.28 0.66 8 1 C6.88671875 2.48828125 6.88671875 2.48828125 5 4 C2.08203125 4.29296875 2.08203125 4.29296875 -1.1875 4.1875 C-2.27417969 4.16042969 -3.36085937 4.13335937 -4.48046875 4.10546875 C-5.31191406 4.07066406 -6.14335937 4.03585938 -7 4 C-7 3.67 -7 3.34 -7 3 C-5.5459375 2.814375 -5.5459375 2.814375 -4.0625 2.625 C-2.5465625 2.315625 -2.5465625 2.315625 -1 2 C-0.67 1.34 -0.34 0.68 0 0 Z " fill="#37455D" transform="translate(229,91)"/>
<path d="M0 0 C0.99 0.66 1.98 1.32 3 2 C0.36 3.65 -2.28 5.3 -5 7 C-5.33 5.68 -5.66 4.36 -6 3 C-2.25 1.875 -2.25 1.875 0 3 C0 2.01 0 1.02 0 0 Z " fill="#233044" transform="translate(192,409)"/>
<path d="M0 0 C2.475 0.495 2.475 0.495 5 1 C6.10844919 4.32534757 5.84454356 6.62182575 5 10 C3 8 3 8 2.875 5.375 C2.91625 4.59125 2.9575 3.8075 3 3 C2.01 2.67 1.02 2.34 0 2 C0 1.34 0 0.68 0 0 Z " fill="#28374A" transform="translate(197,355)"/>
<path d="M0 0 C1.55693206 2.33539809 2.90200646 4.57968756 4.1875 7.0625 C4.55230469 7.75472656 4.91710937 8.44695312 5.29296875 9.16015625 C5.52628906 9.76730469 5.75960938 10.37445313 6 11 C5.67 11.66 5.34 12.32 5 13 C2.19151983 11.59575991 2.07585415 9.89135802 1 7 C0.608125 6.29875 0.21625 5.5975 -0.1875 4.875 C-1 3 -1 3 0 0 Z " fill="#2B384A" transform="translate(254,344)"/>
<path d="M0 0 C0.33 0.66 0.66 1.32 1 2 C1.66 2.33 2.32 2.66 3 3 C2.34 5.31 1.68 7.62 1 10 C0.01 9.67 -0.98 9.34 -2 9 C-1.34 6.03 -0.68 3.06 0 0 Z " fill="#D4DFE5" transform="translate(185,337)"/>
<path d="M0 0 C3 0 3 0 5 1 C4.8125 2.875 4.8125 2.875 4 5 C1.4375 6.25 1.4375 6.25 -1 7 C-1.33 6.01 -1.66 5.02 -2 4 C-1.34 3.34 -0.68 2.68 0 2 C0 1.34 0 0.68 0 0 Z " fill="#182A4D" transform="translate(298,320)"/>
<path d="M0 0 C0.99 0 1.98 0 3 0 C3.66 1.98 4.32 3.96 5 6 C4.34 6.66 3.68 7.32 3 8 C2.566875 7.0409375 2.566875 7.0409375 2.125 6.0625 C1.17176549 3.84793921 1.17176549 3.84793921 -1 3 C-0.67 2.01 -0.34 1.02 0 0 Z " fill="#25314F" transform="translate(217,268)"/>
<path d="M0 0 C-0.28875 0.70125 -0.5775 1.4025 -0.875 2.125 C-2.02133588 5.05452503 -3.02625654 8.00921653 -4 11 C-4.66 10.67 -5.32 10.34 -6 10 C-5.38909774 3.52443609 -5.38909774 3.52443609 -3.5625 1.0625 C-2 0 -2 0 0 0 Z " fill="#243149" transform="translate(176,120)"/>
<path d="M0 0 C0.33 0.66 0.66 1.32 1 2 C0.67 2.99 0.34 3.98 0 5 C0.33 5.66 0.66 6.32 1 7 C-1.64 7.66 -4.28 8.32 -7 9 C-6.02180976 7.68677212 -5.0424189 6.37443848 -4.0625 5.0625 C-3.51722656 4.33160156 -2.97195313 3.60070312 -2.41015625 2.84765625 C-1 1 -1 1 0 0 Z " fill="#DDE1EA" transform="translate(357,424)"/>
<path d="M0 0 C3.3 0.33 6.6 0.66 10 1 C10 1.33 10 1.66 10 2 C4.06 2.495 4.06 2.495 -2 3 C-1.34 2.01 -0.68 1.02 0 0 Z " fill="#242E46" transform="translate(182,371)"/>
<path d="M0 0 C0.66 0.33 1.32 0.66 2 1 C1.1875 3.4375 1.1875 3.4375 0 6 C-0.99 6.33 -1.98 6.66 -3 7 C-3 6.34 -3 5.68 -3 5 C-3.66 4.67 -4.32 4.34 -5 4 C-3.35 2.68 -1.7 1.36 0 0 Z " fill="#25344F" transform="translate(387,110)"/>
<path d="M0 0 C2.50298434 2.93828597 3.46930939 5.17902761 4 9 C3.01 9 2.02 9 1 9 C0.87625 8.360625 0.7525 7.72125 0.625 7.0625 C0.315625 6.0415625 0.315625 6.0415625 0 5 C-0.66 4.67 -1.32 4.34 -2 4 C-2 3.34 -2 2.68 -2 2 C-1.34 2 -0.68 2 0 2 C0 1.34 0 0.68 0 0 Z " fill="#25344A" transform="translate(247,329)"/>
<path d="M0 0 C0.33 0 0.66 0 1 0 C1.1953125 6.0546875 1.1953125 6.0546875 1 8 C0.34 8.66 -0.32 9.32 -1 10 C-1.66 9.67 -2.32 9.34 -3 9 C-2.01 6.03 -1.02 3.06 0 0 Z " fill="#DCE4EB" transform="translate(308,327)"/>
<path d="M0 0 C0.66 0 1.32 0 2 0 C1.44271087 3.34373475 0.64826111 6.03312999 -1 9 C-1.66 8.67 -2.32 8.34 -3 8 C-1.125 2.25 -1.125 2.25 0 0 Z " fill="#2B3A51" transform="translate(430,171)"/>
<path d="M0 0 C0.66 0.99 1.32 1.98 2 3 C0.5199159 2.88637738 -0.95910074 2.75877092 -2.4375 2.625 C-3.26121094 2.55539063 -4.08492188 2.48578125 -4.93359375 2.4140625 C-5.61550781 2.27742188 -6.29742187 2.14078125 -7 2 C-7.33 1.34 -7.66 0.68 -8 0 C-4.67212881 -1.1092904 -3.3006216 -1.01557588 0 0 Z " fill="#2F3D54" transform="translate(276,98)"/>
<path d="M0 0 C0.66 0.33 1.32 0.66 2 1 C0.68 3.64 -0.64 6.28 -2 9 C-2.33 8.34 -2.66 7.68 -3 7 C-3.66 6.67 -4.32 6.34 -5 6 C-3.35 4.02 -1.7 2.04 0 0 Z " fill="#2A3852" transform="translate(401,459)"/>
<path d="M0 0 C1.98 0.99 1.98 0.99 4 2 C3.01 4.97 2.02 7.94 1 11 C-0.28317892 7.15046324 -0.06643637 4.05261865 0 0 Z " fill="#3A4554" transform="translate(238,463)"/>
<path d="M0 0 C0.66 0.33 1.32 0.66 2 1 C1.01 2.98 0.02 4.96 -1 7 C-1.99 7 -2.98 7 -4 7 C-3.6875 4.625 -3.6875 4.625 -3 2 C-2.01 1.34 -1.02 0.68 0 0 Z " fill="#232F48" transform="translate(312,456)"/>
<path d="M0 0 C0.66 0.33 1.32 0.66 2 1 C0.4198632 3.15473199 -1.10646634 5.10646634 -3 7 C-5.125 6.625 -5.125 6.625 -7 6 C-6.21625 5.38125 -5.4325 4.7625 -4.625 4.125 C-2.03162353 2.10141339 -2.03162353 2.10141339 0 0 Z " fill="#DFE5EB" transform="translate(345,436)"/>
<path d="M0 0 C0.66 0 1.32 0 2 0 C2.33 0.99 2.66 1.98 3 3 C0.03 5.475 0.03 5.475 -3 8 C-3 7.01 -3 6.02 -3 5 C-2.34 5 -1.68 5 -1 5 C-1.33 4.01 -1.66 3.02 -2 2 C-1.34 2 -0.68 2 0 2 C0 1.34 0 0.68 0 0 Z " fill="#22304B" transform="translate(348,429)"/>
<path d="M0 0 C0.66 0 1.32 0 2 0 C1.46930939 3.82097239 0.50298434 6.06171403 -2 9 C-2.33 7.35 -2.66 5.7 -3 4 C-2.01 3.67 -1.02 3.34 0 3 C0 2.01 0 1.02 0 0 Z " fill="#E0E9EE" transform="translate(312,424)"/>
<path d="M0 0 C2.15377564 2.62198774 3.40072174 4.64404172 4 8 C3.01 8.495 3.01 8.495 2 9 C0.02 5.535 0.02 5.535 -2 2 C-1.34 1.34 -0.68 0.68 0 0 Z " fill="#2B3651" transform="translate(275,390)"/>
<path d="M0 0 C1.73662334 3.22515763 2.8905928 6.51329166 4 10 C2.0625 9.3125 2.0625 9.3125 0 8 C-1.09809194 4.70572419 -1.11196276 3.33588828 0 0 Z " fill="#394557" transform="translate(364,350)"/>
<path d="M0 0 C0.99 0.99 1.98 1.98 3 3 C2.01 4.98 1.02 6.96 0 9 C-1.125 7.3125 -1.125 7.3125 -2 5 C-1.125 2.25 -1.125 2.25 0 0 Z " fill="#212D49" transform="translate(315,305)"/>
<path d="M0 0 C2.86724686 0.57344937 3.8614515 0.8614515 6 3 C3.33333333 3.66666667 0.66666667 4.33333333 -2 5 C-2 4.01 -2 3.02 -2 2 C-1.34 2 -0.68 2 0 2 C0 1.34 0 0.68 0 0 Z " fill="#354153" transform="translate(373,457)"/>
<path d="M0 0 C2.475 0.495 2.475 0.495 5 1 C5 2.65 5 4.3 5 6 C4.01 6.495 4.01 6.495 3 7 C2.01 4.69 1.02 2.38 0 0 Z " fill="#E4EBEE" transform="translate(272,383)"/>
<path d="M0 0 C1.32 0.66 2.64 1.32 4 2 C3.01 2.33 2.02 2.66 1 3 C1.33 4.65 1.66 6.3 2 8 C1.01 8 0.02 8 -1 8 C-2.2077558 4.37673261 -1.54311128 3.35853631 0 0 Z " fill="#212D4B" transform="translate(395,247)"/>
<path d="M0 0 C0.66 0 1.32 0 2 0 C0.7874262 3.72433382 -0.50859979 7.37802806 -2 11 C-2.66 10.67 -3.32 10.34 -4 10 C-3.52449439 8.51965236 -3.04448784 7.04074979 -2.5625 5.5625 C-2.29566406 4.73878906 -2.02882813 3.91507813 -1.75390625 3.06640625 C-1 1 -1 1 0 0 Z " fill="#E1E8EF" transform="translate(392,250)"/>
<path d="M0 0 C1.60080151 4.00200378 0.29279692 7.04556236 -1 11 C-1.99 11 -2.98 11 -4 11 C-3.52269162 9.5410574 -3.04308958 8.08286504 -2.5625 6.625 C-2.29566406 5.81289062 -2.02882813 5.00078125 -1.75390625 4.1640625 C-1 2 -1 2 0 0 Z " fill="#2F3D53" transform="translate(407,221)"/>
<path d="M0 0 C2.97 0 5.94 0 9 0 C8.67 0.99 8.34 1.98 8 3 C5.525 2.01 5.525 2.01 3 1 C2.34 2.32 1.68 3.64 1 5 C0.67 3.35 0.34 1.7 0 0 Z " fill="#283147" transform="translate(352,211)"/>
<path d="M0 0 C-1 2 -1 2 -2.84765625 2.6328125 C-3.57855469 2.79523438 -4.30945313 2.95765625 -5.0625 3.125 C-6.16271484 3.37636719 -6.16271484 3.37636719 -7.28515625 3.6328125 C-7.85105469 3.75398438 -8.41695313 3.87515625 -9 4 C-8.67 3.01 -8.34 2.02 -8 1 C-5.29120665 -0.35439668 -2.99066732 -0.06501451 0 0 Z " fill="#273346" transform="translate(383,99)"/>
<path d="M0 0 C2.31 0 4.62 0 7 0 C7 0.99 7 1.98 7 3 C6.34 3.66 5.68 4.32 5 5 C4.01 4.67 3.02 4.34 2 4 C2 3.01 2 2.02 2 1 C1.34 0.67 0.68 0.34 0 0 Z " fill="#21304A" transform="translate(274,505)"/>
<path d="M0 0 C2 1.1875 2 1.1875 4 3 C4.25 5.6875 4.25 5.6875 4 8 C-0.875 3.25 -0.875 3.25 -2 1 C-1.34 0.67 -0.68 0.34 0 0 Z " fill="#E1E6ED" transform="translate(349,479)"/>
<path d="M0 0 C0.66 0.33 1.32 0.66 2 1 C0.515 4.465 0.515 4.465 -1 8 C-1.66 7.67 -2.32 7.34 -3 7 C-2.625 4.0625 -2.625 4.0625 -2 1 C-1.34 0.67 -0.68 0.34 0 0 Z " fill="#E4ECED" transform="translate(308,434)"/>
<path d="M0 0 C1.25541557 3.76624671 0.37061958 5.37188934 -1 9 C-1.99 9 -2.98 9 -4 9 C-2.80100302 5.9168649 -1.52299523 2.93720508 0 0 Z " fill="#DEE5ED" transform="translate(365,411)"/>
<path d="M0 0 C1.65 0 3.3 0 5 0 C4.34 1.32 3.68 2.64 3 4 C1.68 4 0.36 4 -1 4 C-0.67 2.68 -0.34 1.36 0 0 Z " fill="#E3ECF3" transform="translate(187,333)"/>
<path d="M0 0 C1.32 0.66 2.64 1.32 4 2 C2.625 4 2.625 4 1 6 C0.34 6 -0.32 6 -1 6 C-0.67 4.02 -0.34 2.04 0 0 Z " fill="#1B2B41" transform="translate(360,324)"/>
<path d="M0 0 C2.15377564 2.62198774 3.40072174 4.64404172 4 8 C3.01 8 2.02 8 1 8 C0 7 0 7 -0.0625 3.4375 C-0.041875 2.303125 -0.02125 1.16875 0 0 Z " fill="#2B374E" transform="translate(208,244)"/>
<path d="M0 0 C0.66 0.99 1.32 1.98 2 3 C0.63016497 6.16115776 0.0109362 6.9927092 -3 9 C-2.01 6.03 -1.02 3.06 0 0 Z " fill="#313D54" transform="translate(401,234)"/>
<path d="M0 0 C2.15377564 2.62198774 3.40072174 4.64404172 4 8 C3.01 7.67 2.02 7.34 1 7 C0.67 7.66 0.34 8.32 0 9 C0.33 7.35 0.66 5.7 1 4 C0.34 4 -0.32 4 -1 4 C-0.67 2.68 -0.34 1.36 0 0 Z " fill="#D5DBE2" transform="translate(236,194)"/>
<path d="M0 0 C0.99 0.33 1.98 0.66 3 1 C1.68 2.32 0.36 3.64 -1 5 C-1.99 4.67 -2.98 4.34 -4 4 C-2.68 2.68 -1.36 1.36 0 0 Z " fill="#232C48" transform="translate(231,136)"/>
<path d="M0 0 C1.5 1.375 1.5 1.375 3 3 C3 3.66 3 4.32 3 5 C0.5 6.625 0.5 6.625 -2 8 C-1.34 5.36 -0.68 2.72 0 0 Z " fill="#E2E9EC" transform="translate(368,403)"/>
<path d="M0 0 C0.33 0 0.66 0 1 0 C1 1.98 1 3.96 1 6 C-0.98 6.99 -0.98 6.99 -3 8 C-1.125 1.125 -1.125 1.125 0 0 Z " fill="#2D384F" transform="translate(340,368)"/>
<path d="M0 0 C0.66 0.33 1.32 0.66 2 1 C1.34 2.98 0.68 4.96 0 7 C-0.99 6.67 -1.98 6.34 -3 6 C-2.42655063 3.13275314 -2.1385485 2.1385485 0 0 Z " fill="#E9EEF0" transform="translate(339,365)"/>
<path d="M0 0 C0.66 0.33 1.32 0.66 2 1 C1.25 6.75 1.25 6.75 -1 9 C-1 5.72724974 -0.70074844 3.153368 0 0 Z " fill="#EEF3F7" transform="translate(347,345)"/>
<path d="M0 0 C0.6875 1.8125 0.6875 1.8125 1 4 C-0.4375 5.75 -0.4375 5.75 -2 7 C-2.66 6.67 -3.32 6.34 -4 6 C-4 5.01 -4 4.02 -4 3 C-3.01 2.67 -2.02 2.34 -1 2 C-0.67 1.34 -0.34 0.68 0 0 Z " fill="#EFF2F1" transform="translate(190,342)"/>
<path d="M0 0 C0 0.66 0 1.32 0 2 C-2.99531539 2.99843846 -4.17255732 3.00732761 -7.1875 2.5625 C-8.445625 2.376875 -9.70375 2.19125 -11 2 C-11 1.67 -11 1.34 -11 1 C-7.26562152 0.12132271 -3.83225427 -0.08912219 0 0 Z " fill="#CAD4E0" transform="translate(419,334)"/>
<path d="M0 0 C1.32 1.32 2.64 2.64 4 4 C3.34 5.32 2.68 6.64 2 8 C-0.1519437 4.77208445 -0.20086443 3.71599191 0 0 Z " fill="#D6E0E9" transform="translate(399,303)"/>
<path d="M0 0 C0.66 0.66 1.32 1.32 2 2 C1.01 3.98 0.02 5.96 -1 8 C-1.99 7.67 -2.98 7.34 -4 7 C-2.79618552 4.50638429 -1.54571278 2.31856917 0 0 Z " fill="#1B2D45" transform="translate(335,264)"/>
<path d="M0 0 C3 3.75 3 3.75 3 6 C2.01 6.33 1.02 6.66 0 7 C-1 6 -1 6 -1.125 3.5 C-1 1 -1 1 0 0 Z " fill="#E0E6ED" transform="translate(241,205)"/>
<path d="M0 0 C0.66 0.66 1.32 1.32 2 2 C1.625 4.625 1.625 4.625 1 7 C0.01 7.33 -0.98 7.66 -2 8 C-1.34 5.36 -0.68 2.72 0 0 Z " fill="#D5E2EA" transform="translate(368,482)"/>
<path d="M0 0 C0.66 0.99 1.32 1.98 2 3 C1.34 3 0.68 3 0 3 C-0.33 5.31 -0.66 7.62 -1 10 C-1.66 9.67 -2.32 9.34 -3 9 C-2.01 6.03 -1.02 3.06 0 0 Z " fill="#303B50" transform="translate(330,389)"/>
<path d="M0 0 C0.66 0.33 1.32 0.66 2 1 C1.34 2.98 0.68 4.96 0 7 C-0.66 7 -1.32 7 -2 7 C-2.33 5.68 -2.66 4.36 -3 3 C-2.01 3 -1.02 3 0 3 C0 2.01 0 1.02 0 0 Z " fill="#293348" transform="translate(304,331)"/>
<path d="M0 0 C1.5625 1.1875 1.5625 1.1875 3 3 C2.6875 5.6875 2.6875 5.6875 2 8 C0.4375 6.25 0.4375 6.25 -1 4 C-0.6875 1.75 -0.6875 1.75 0 0 Z " fill="#243340" transform="translate(390,322)"/>
<path d="M0 0 C0.66 0 1.32 0 2 0 C1.75 2.375 1.75 2.375 1 5 C-1.0625 6.3125 -1.0625 6.3125 -3 7 C-1.125 1.125 -1.125 1.125 0 0 Z " fill="#E1E4ED" transform="translate(388,300)"/>
<path d="M0 0 C1.65 0.33 3.3 0.66 5 1 C5.33 1.99 5.66 2.98 6 4 C5.01 4 4.02 4 3 4 C2.34 3.34 1.68 2.68 1 2 C0.01 2.495 0.01 2.495 -1 3 C-0.67 2.01 -0.34 1.02 0 0 Z " fill="#DBE2EB" transform="translate(392,298)"/>
<path d="M0 0 C0.99 0 1.98 0 3 0 C3.625 2.375 3.625 2.375 4 5 C3.34 5.66 2.68 6.32 2 7 C1.34 4.69 0.68 2.38 0 0 Z " fill="#222D49" transform="translate(225,285)"/>
<path d="M0 0 C0.66 0.33 1.32 0.66 2 1 C2 1.66 2 2.32 2 3 C0.03852126 4.38938077 -1.96166576 5.7260411 -4 7 C-3.39816251 4.97954558 -2.72693904 2.97888961 -2 1 C-1.34 0.67 -0.68 0.34 0 0 Z " fill="#E5EAEF" transform="translate(329,285)"/>
<path d="M0 0 C1.32 0.33 2.64 0.66 4 1 C4.33 2.32 4.66 3.64 5 5 C4.01 5.33 3.02 5.66 2 6 C1.34 4.02 0.68 2.04 0 0 Z " fill="#1E2B46" transform="translate(274,275)"/>
<path d="M0 0 C0.33 0.66 0.66 1.32 1 2 C1.66 2 2.32 2 3 2 C2.67 3.32 2.34 4.64 2 6 C2.66 6 3.32 6 4 6 C3.67 6.99 3.34 7.98 3 9 C0.53721199 6.53721199 0.00228745 4.29323018 -1 1 C-0.67 0.67 -0.34 0.34 0 0 Z " fill="#E1EAED" transform="translate(216,257)"/>
<path d="M0 0 C0.66 0.33 1.32 0.66 2 1 C0.8141763 4.37503669 -0.27573689 6.64722731 -3 9 C-2.44271087 5.65626525 -1.64826111 2.96687001 0 0 Z " fill="#D7DDE6" transform="translate(358,218)"/>
<path d="M0 0 C0.99 0.33 1.98 0.66 3 1 C3 3.31 3 5.62 3 8 C1.10786631 5.61426621 -0.02391783 3.92824652 -1 1 C-0.67 0.67 -0.34 0.34 0 0 Z " fill="#1E2B3D" transform="translate(237,192)"/>
<path d="M0 0 C0.66 0 1.32 0 2 0 C2 0.66 2 1.32 2 2 C1.34 2 0.68 2 0 2 C0 3.32 0 4.64 0 6 C-1.32 6.33 -2.64 6.66 -4 7 C-2.92598892 4.08482708 -2.22189824 2.22189824 0 0 Z " fill="#2E3C4D" transform="translate(364,133)"/>
</svg>
